# Blender v2.76 (sub 0) OBJ File: ''
# www.blender.org
mtllib ship.mtl
o LOW_Untitled
v 0.087550 0.069792 0.028165
v 0.090104 0.048796 0.039787
v 0.090048 0.026658 0.025137
v 0.090027 0.009732 0.000000
v 0.090447 0.089891 0.000343
v -0.092499 0.066100 0.034313
v -0.090856 0.047691 0.039472
v -0.089890 0.033303 0.032727
v -0.095519 0.018952 0.001433
v -0.098338 0.081750 0.001723
v 0.080616 0.046495 0.001034
v -0.156223 0.048884 0.005160
v 0.075701 0.062604 0.119870
v 0.079817 0.048136 0.121744
v -0.067114 0.048060 0.115558
v -0.066741 0.063525 0.114666
v 0.076160 0.035617 0.121255
v -0.066937 0.033373 0.115678
v 0.067383 0.056726 0.126611
v 0.071256 0.048053 0.127390
v -0.026698 0.048253 0.131862
v -0.025159 0.059219 0.130585
v 0.068374 0.039838 0.127441
v -0.029000 0.036573 0.128145
v 0.063241 0.050531 0.218363
v 0.065589 0.048146 0.219649
v 0.020885 0.040260 0.215157
v 0.022002 0.052149 0.216687
v 0.063293 0.039933 0.217409
v 0.020737 0.037655 0.212182
v 0.079107 0.086558 0.000000
v -0.023744 0.088875 -0.000507
v 0.072927 0.079495 0.011267
v -0.020106 0.078069 0.013529
v 0.152396 0.134214 -0.000680
v 0.030448 0.136565 0.001091
v 0.148599 0.125237 0.012268
v 0.032318 0.126258 0.012774
v 0.087567 0.069769 -0.028248
v 0.090018 0.048778 -0.040071
v 0.091180 0.027417 -0.023864
v -0.086716 0.072028 -0.027238
v -0.090174 0.048562 -0.040288
v -0.090572 0.026546 -0.028179
v 0.078984 0.063399 -0.121085
v 0.079851 0.047926 -0.121532
v -0.062017 0.048026 -0.121251
v -0.065948 0.055581 -0.123219
v 0.077550 0.036169 -0.121190
v -0.062137 0.034071 -0.121239
v 0.072609 0.054839 -0.131364
v 0.071136 0.048042 -0.129342
v -0.026919 0.048178 -0.131791
v -0.026346 0.059603 -0.131814
v 0.067337 0.037344 -0.125627
v -0.025916 0.036924 -0.130403
v 0.065698 0.051229 -0.217951
v 0.065614 0.048813 -0.219254
v 0.020235 0.049214 -0.216347
v 0.020311 0.052300 -0.215726
v 0.064011 0.041376 -0.217269
v 0.020792 0.039870 -0.215016
v 0.070332 0.078269 -0.012403
v -0.017634 0.077253 -0.014332
v 0.149317 0.126199 -0.011185
v 0.032085 0.126164 -0.012800
v -0.153152 0.062538 0.005492
v -0.152284 0.055582 0.018151
v -0.152831 0.048443 0.019405
v -0.153219 0.043315 0.016528
v -0.153363 0.037187 0.005359
v -0.154102 0.041133 -0.004938
v -0.151896 0.048761 -0.010527
v -0.151225 0.057463 -0.005280
vt 0.758520 0.193834
vt 0.759029 0.313634
vt 0.751057 0.314925
vt 0.751057 0.190389
vt 0.720955 0.312847
vt 0.723149 0.195551
vt 0.551761 0.674201
vt 0.939051 0.674201
vt 0.939123 0.712644
vt 0.551833 0.712644
vt 0.133126 0.443656
vt 0.131611 0.593448
vt 0.101253 0.592782
vt 0.106382 0.442403
vt 0.813595 0.274504
vt 0.814045 0.311175
vt 0.791921 0.285402
vt 0.835532 0.285086
vt 0.851965 0.310900
vt 0.776128 0.311449
vt 0.912333 0.381437
vt 0.906140 0.399707
vt 0.899315 0.399713
vt 0.894372 0.379542
vt 0.895025 0.403375
vt 0.882091 0.388505
vt 0.891152 0.415237
vt 0.873940 0.421332
vt 0.932256 0.410428
vt 0.914671 0.410800
vt 0.797314 0.203251
vt 0.812718 0.203349
vt 0.881970 0.305450
vt 0.896471 0.303682
vt 0.309790 0.694170
vt 0.177837 0.608208
vt 0.161391 0.075459
vt 0.309790 0.018606
vt 0.828117 0.203028
vt 0.573434 0.552475
vt 0.887247 0.550931
vt 0.868308 0.307824
vt 0.800683 0.199025
vt 0.812667 0.199125
vt 0.878858 0.289062
vt 0.889225 0.288417
vt 0.149552 0.454966
vt 0.150755 0.108121
vt 0.824646 0.198851
vt 0.591555 0.546246
vt 0.863916 0.546246
vt 0.868652 0.294678
vt 0.809368 0.118159
vt 0.811563 0.116920
vt 0.857141 0.209076
vt 0.867915 0.205560
vt 0.006948 0.290070
vt 0.001875 0.136002
vt 0.821114 0.118626
vt 0.608134 0.427280
vt 0.692140 0.428055
vt 0.855208 0.212402
vt 0.355333 0.001992
vt 0.356435 0.044790
vt 0.338300 0.070151
vt 0.339799 0.419051
vt 0.363079 0.429698
vt 0.363442 0.710162
vt 0.776053 0.060610
vt 0.743038 0.172176
vt 0.717277 0.166493
vt 0.717277 0.050222
vt 0.001875 0.538803
vt 0.001875 0.705038
vt 0.050321 0.707521
vt 0.719784 0.320927
vt 0.729582 0.317473
vt 0.729582 0.442311
vt 0.719116 0.441017
vt 0.766221 0.322647
vt 0.769101 0.440227
vt 0.551761 0.751087
vt 0.939051 0.751087
vt 0.132449 0.604926
vt 0.163352 0.603712
vt 0.169233 0.749812
vt 0.134614 0.750426
vt 0.814498 0.347846
vt 0.792560 0.337263
vt 0.836171 0.336947
vt 0.927751 0.439972
vt 0.908136 0.456644
vt 0.904461 0.428640
vt 0.911679 0.422070
vt 0.885728 0.448659
vt 0.896503 0.424551
vt 0.815375 0.419001
vt 0.799976 0.419322
vt 0.927751 0.535446
vt 0.920353 0.534768
vt 0.409544 0.664016
vt 0.401365 0.011362
vt 0.552381 0.032391
vt 0.563748 0.575826
vt 0.830779 0.419098
vt 0.887247 0.874357
vt 0.573434 0.872813
vt 0.907393 0.537128
vt 0.815428 0.423225
vt 0.803448 0.423498
vt 0.932256 0.542540
vt 0.921651 0.544465
vt 0.569193 0.055905
vt 0.575593 0.425958
vt 0.827412 0.423325
vt 0.863916 0.879042
vt 0.591555 0.879042
vt 0.910958 0.545018
vt 0.816350 0.505430
vt 0.814124 0.504223
vt 0.938374 0.624413
vt 0.935611 0.625539
vt 0.710044 0.071162
vt 0.709002 0.241326
vt 0.825857 0.503586
vt 0.692140 0.997233
vt 0.608134 0.998008
vt 0.926708 0.625829
vt 0.376837 0.076995
vt 0.384866 0.406337
vt 0.839231 0.056119
vt 0.771389 0.169110
vt 0.283433 0.697620
vt 0.283432 0.859106
vt 0.222752 0.861902
vt 0.902093 0.413483
vn -0.069900 -0.023100 0.997300
vn -0.051300 -0.424200 0.904100
vn -0.025900 -0.873200 0.486600
vn 0.017000 0.786600 0.617200
vn 0.968300 0.066200 -0.241000
vn 0.999700 0.024200 0.003400
vn 0.981600 -0.135200 -0.134800
vn 0.956900 0.203500 -0.207000
vn 0.968600 0.247100 0.028900
vn 0.975300 -0.220900 0.001600
vn -0.302600 0.638900 0.707300
vn -0.331300 0.663400 0.670900
vn -0.343600 -0.099600 0.933800
vn -0.306700 -0.096200 0.946900
vn -0.297900 -0.751900 0.588200
vn -0.271200 -0.734500 0.622100
vn -0.323100 -0.939200 0.116300
vn -0.299400 -0.950200 0.086300
vn -0.335700 0.942000 0.005400
vn -0.364500 0.927100 0.087300
vn 0.963600 0.232000 0.133300
vn -0.953200 0.018200 0.301900
vn -0.008400 0.998300 0.057300
vn 0.976100 -0.165900 0.140200
vn -0.013300 -0.998600 0.051000
vn -0.954500 -0.101400 0.280500
vn 0.506400 0.268800 0.819300
vn -0.359400 0.102100 0.927600
vn 0.011300 0.918100 0.396100
vn 0.544000 -0.188900 0.817600
vn 0.014400 -0.936800 0.349500
vn -0.339100 -0.100200 0.935400
vn 0.864800 0.498200 0.062600
vn -0.865200 0.095100 0.492400
vn 0.031800 0.997300 0.066700
vn 0.950100 -0.306900 0.056400
vn 0.039700 -0.999200 -0.003400
vn -0.862800 -0.085500 0.498300
vn -0.155000 0.827800 0.539200
vn -0.000900 0.867500 0.497500
vn -0.034500 0.866200 0.498500
vn 0.503200 -0.801400 -0.323500
vn 0.013300 -0.020700 0.999700
vn -0.537100 0.591900 0.601000
vn -0.047900 0.330800 -0.942500
vn -0.054700 -0.190300 -0.980200
vn -0.017200 -0.903200 -0.428900
vn 0.007300 0.797900 -0.602800
vn 0.969300 0.094100 0.226900
vn 0.983000 -0.129700 0.130200
vn 0.946700 0.230200 0.225300
vn -0.369100 0.659300 -0.655000
vn -0.435000 0.075100 -0.897300
vn -0.457900 0.014200 -0.888900
vn -0.391600 0.695200 -0.602800
vn -0.378800 -0.694400 -0.611800
vn -0.400200 -0.749100 -0.528000
vn 0.985600 0.127100 -0.111300
vn -0.958400 0.082900 -0.273000
vn -0.016900 0.992500 -0.121000
vn 0.985500 -0.101700 -0.135700
vn 0.010300 -0.996400 -0.084400
vn -0.945900 -0.091200 -0.311300
vn 0.781000 -0.065200 -0.621100
vn -0.238100 -0.142900 -0.960700
vn -0.009500 0.968300 -0.249500
vn 0.507000 -0.284700 -0.813600
vn 0.015800 -0.966500 -0.256100
vn -0.263300 -0.062700 -0.962700
vn 0.983000 -0.171300 -0.066500
vn -0.871200 0.059000 -0.487300
vn 0.039700 0.997700 -0.054600
vn 0.952200 -0.300700 -0.054400
vn 0.014800 -0.999200 -0.035900
vn -0.865800 -0.129400 -0.483400
vn -0.140700 0.832000 -0.536600
vn 0.005800 0.898300 -0.439300
vn -0.042100 0.887000 -0.459900
vn 0.504300 -0.805200 0.312100
vn 0.017200 0.005500 -0.999800
vn -0.527400 0.587200 -0.614000
vn -0.998600 0.051700 -0.014100
usemtl lambert1
s 1
f 25/1/1 28/2/1 27/3/1 26/4/1
f 26/4/2 27/3/2 30/5/2 29/6/2
f 3/7/3 8/8/3 9/9/3 4/10/3
f 35/11/4 36/12/4 38/13/4 37/14/4
f 2/15/5 11/16/6 1/17/7
f 3/18/8 11/16/6 2/15/5
f 4/19/9 11/16/6 3/18/8
f 1/17/7 11/16/6 5/20/10
f 6/21/11 68/22/12 69/23/13 7/24/14
f 7/24/14 69/23/13 70/25/15 8/26/16
f 8/26/16 70/25/15 71/27/17 9/28/18
f 10/29/19 67/30/20 68/22/12 6/21/11
f 1/17/21 13/31/21 14/32/21 2/15/21
f 7/24/22 15/33/22 16/34/22 6/21/22
f 6/35/23 16/36/23 13/37/23 1/38/23
f 2/15/24 14/32/24 17/39/24 3/18/24
f 3/7/25 17/40/25 18/41/25 8/8/25
f 8/26/26 18/42/26 15/33/26 7/24/26
f 13/31/27 19/43/27 20/44/27 14/32/27
f 15/33/28 21/45/28 22/46/28 16/34/28
f 16/36/29 22/47/29 19/48/29 13/37/29
f 14/32/30 20/44/30 23/49/30 17/39/30
f 17/40/31 23/50/31 24/51/31 18/41/31
f 18/42/32 24/52/32 21/45/32 15/33/32
f 19/43/33 25/53/33 26/54/33 20/44/33
f 21/45/34 27/55/34 28/56/34 22/46/34
f 22/47/35 28/57/35 25/58/35 19/48/35
f 20/44/36 26/54/36 29/59/36 23/49/36
f 23/50/37 29/60/37 30/61/37 24/51/37
f 24/52/38 30/62/38 27/55/38 21/45/38
f 5/63/39 31/64/39 33/65/39 1/38/39
f 1/38/40 33/65/40 34/66/40 6/35/40
f 6/35/41 34/66/41 32/67/41 10/68/41
f 31/69/42 35/70/42 37/71/42 33/72/42
f 33/73/43 37/14/43 38/13/43 34/74/43
f 34/74/44 38/13/44 36/12/44 32/75/44
f 57/76/45 58/77/45 59/78/45 60/79/45
f 58/77/46 61/80/46 62/81/46 59/78/46
f 41/82/47 4/10/47 9/9/47 44/83/47
f 35/84/48 65/85/48 66/86/48 36/87/48
f 40/88/49 39/89/50 11/16/6
f 41/90/51 40/88/49 11/16/6
f 4/19/9 41/90/51 11/16/6
f 39/89/50 5/20/10 11/16/6
f 42/91/52 43/92/53 73/93/54 74/94/55
f 43/92/53 44/95/56 72/96/57 73/93/54
f 44/95/56 9/28/18 71/27/17 72/96/57
f 10/29/19 42/91/52 74/94/55 67/30/20
f 39/89/58 40/88/58 46/97/58 45/98/58
f 43/92/59 42/91/59 48/99/59 47/100/59
f 42/101/60 39/102/60 45/103/60 48/104/60
f 40/88/61 41/90/61 49/105/61 46/97/61
f 41/82/62 44/83/62 50/106/62 49/107/62
f 44/95/63 43/92/63 47/100/63 50/108/63
f 45/98/64 46/97/64 52/109/64 51/110/64
f 47/100/65 48/99/65 54/111/65 53/112/65
f 48/104/66 45/103/66 51/113/66 54/114/66
f 46/97/67 49/105/67 55/115/67 52/109/67
f 49/107/68 50/106/68 56/116/68 55/117/68
f 50/108/69 47/100/69 53/112/69 56/118/69
f 51/110/70 52/109/70 58/119/70 57/120/70
f 53/112/71 54/111/71 60/121/71 59/122/71
f 54/114/72 51/113/72 57/123/72 60/124/72
f 52/109/73 55/115/73 61/125/73 58/119/73
f 55/117/74 56/116/74 62/126/74 61/127/74
f 56/118/75 53/112/75 59/122/75 62/128/75
f 5/63/76 39/102/76 63/129/76 31/64/76
f 39/102/77 42/101/77 64/130/77 63/129/77
f 42/101/78 10/68/78 32/67/78 64/130/78
f 31/69/79 63/131/79 65/132/79 35/70/79
f 63/133/80 64/134/80 66/86/80 65/85/80
f 64/134/81 32/135/81 36/87/81 66/86/81
f 68/22/12 67/30/20 12/136/82
f 69/23/13 68/22/12 12/136/82
f 70/25/15 69/23/13 12/136/82
f 71/27/17 70/25/15 12/136/82
f 72/96/57 71/27/17 12/136/82
f 73/93/54 72/96/57 12/136/82
f 74/94/55 73/93/54 12/136/82
f 67/30/20 74/94/55 12/136/82
