# Blender v2.76 (sub 0) OBJ File: ''
# www.blender.org
mtllib Ship.mtl
o LOW_Untitled
v 0.087550 0.069792 0.028165
v 0.090104 0.048796 0.039787
v 0.090048 0.026658 0.025137
v 0.090027 0.009732 0.000000
v 0.090447 0.089891 0.000343
v -0.092499 0.066982 0.031769
v -0.090856 0.047691 0.039472
v -0.089890 0.033303 0.032727
v -0.095519 0.018952 0.001433
v -0.098338 0.081750 0.001723
v 0.080616 0.046495 0.001034
v -0.156223 0.049765 -0.003469
v 0.075701 0.062604 0.119870
v 0.079817 0.048136 0.121744
v -0.067114 0.048060 0.115558
v -0.066741 0.063525 0.114666
v 0.076160 0.035617 0.121255
v -0.066937 0.033373 0.115678
v 0.067383 0.056726 0.126611
v 0.071256 0.048053 0.127390
v -0.026698 0.048253 0.131862
v -0.025159 0.059219 0.130585
v 0.068374 0.039838 0.127441
v -0.029000 0.036573 0.128145
v 0.063241 0.050531 0.218363
v 0.065589 0.048146 0.219649
v 0.020885 0.040260 0.215157
v 0.022002 0.052149 0.216687
v 0.063293 0.039933 0.217409
v 0.020737 0.037655 0.212182
v 0.079107 0.086558 0.000000
v -0.023744 0.088875 -0.000507
v 0.072927 0.079495 0.011267
v -0.020106 0.078069 0.013529
v 0.152396 0.134214 -0.000680
v 0.030448 0.136565 0.001091
v 0.148599 0.125237 0.012268
v 0.032318 0.126258 0.012774
v 0.087567 0.069769 -0.028248
v 0.090018 0.048778 -0.040071
v 0.091180 0.027417 -0.023864
v -0.095030 0.072485 -0.029681
v -0.090174 0.048562 -0.040288
v -0.090572 0.026546 -0.028179
v 0.078984 0.063399 -0.121085
v 0.079851 0.047926 -0.121532
v -0.062017 0.048026 -0.121251
v -0.065948 0.055581 -0.123219
v 0.077550 0.036169 -0.121190
v -0.062137 0.034071 -0.121239
v 0.072609 0.054839 -0.131364
v 0.071136 0.048042 -0.129342
v -0.026919 0.048178 -0.131791
v -0.026346 0.059603 -0.131814
v 0.067337 0.037344 -0.125627
v -0.025916 0.036924 -0.130403
v 0.065698 0.051229 -0.217951
v 0.065614 0.048813 -0.219254
v 0.020235 0.049214 -0.216347
v 0.020311 0.052300 -0.215726
v 0.064011 0.041376 -0.217269
v 0.020792 0.039870 -0.215016
v 0.070332 0.078269 -0.012403
v -0.017634 0.077253 -0.014332
v 0.149317 0.126199 -0.011185
v 0.032085 0.126164 -0.012800
v -0.153152 0.062538 -0.000593
v -0.152284 0.056464 0.015607
v -0.154580 0.048747 0.018062
v -0.153493 0.043006 0.016033
v -0.153363 0.037187 -0.000726
v -0.154102 0.041133 -0.011023
v -0.151896 0.048761 -0.016613
v -0.151225 0.057463 -0.011365
vt 0.161363 0.367651
vt 0.164111 0.426804
vt 0.146968 0.428800
vt 0.157503 0.364257
vt 0.141321 0.429354
vt 0.145409 0.367935
vt 0.678491 0.341340
vt 0.669198 0.518331
vt 0.647398 0.512173
vt 0.655618 0.345524
vt 0.102754 0.365355
vt 0.078651 0.417807
vt 0.069052 0.416437
vt 0.067068 0.354376
vt 0.062540 0.418215
vt 0.039701 0.364066
vt 0.061266 0.434727
vt 0.001918 0.430577
vt 0.137158 0.424822
vt 0.092583 0.434674
vt 0.220786 0.512042
vt 0.208890 0.642667
vt 0.204012 0.644177
vt 0.207028 0.511390
vt 0.067562 0.157712
vt 0.054089 0.005474
vt 0.072945 0.002339
vt 0.085263 0.157435
vt 0.318280 0.160537
vt 0.345860 0.022144
vt 0.401645 0.001992
vt 0.446877 0.126350
vt 0.191798 0.640949
vt 0.194426 0.512556
vt 0.661976 0.901174
vt 0.576460 0.998008
vt 0.533089 0.954328
vt 0.551613 0.815551
vt 0.048848 0.164125
vt 0.049504 0.009747
vt 0.812576 0.367171
vt 0.813271 0.492504
vt 0.793124 0.480932
vt 0.796040 0.354191
vt 0.583983 0.450773
vt 0.574602 0.584559
vt 0.597739 0.597381
vt 0.261750 0.419317
vt 0.257814 0.419295
vt 0.258472 0.354105
vt 0.262985 0.354162
vt 0.246822 0.416802
vt 0.244932 0.354748
vt 0.789651 0.504882
vt 0.770449 0.501601
vt 0.759610 0.333629
vt 0.783833 0.326873
vt 0.114875 0.489682
vt 0.072195 0.511593
vt 0.071438 0.451545
vt 0.083720 0.447888
vt 0.029005 0.493973
vt 0.062567 0.445235
vt 0.203015 0.128205
vt 0.192563 0.128952
vt 0.221796 0.002977
vt 0.224769 0.005546
vt 0.072351 0.708625
vt 0.090239 0.711873
vt 0.060571 0.861424
vt 0.055578 0.861620
vt 0.418092 0.535672
vt 0.556802 0.504142
vt 0.574107 0.627910
vt 0.509766 0.638887
vt 0.175462 0.129989
vt 0.210513 0.003225
vt 0.888491 0.595379
vt 0.783586 0.512218
vt 0.908557 0.452226
vt 0.960952 0.485529
vt 0.054583 0.705986
vt 0.040946 0.858435
vt 0.830662 0.350185
vt 0.830041 0.482650
vt 0.694860 0.391849
vt 0.685747 0.265177
vt 0.709113 0.249629
vt 0.075535 0.438411
vt 0.777886 0.802285
vt 0.566707 0.653421
vt 0.590841 0.609617
vt 0.804827 0.768201
vt 0.201865 0.379124
vt 0.196932 0.322992
vt 0.231761 0.361204
vt 0.168810 0.359592
vt 0.143205 0.323639
vt 0.259933 0.319669
vt 0.227643 0.495071
vt 0.206204 0.496773
vt 0.066619 0.227466
vt 0.091244 0.227998
vt 0.265654 0.323992
vt 0.267632 0.199878
vt 0.461895 0.135521
vt 0.515727 0.257974
vt 0.187978 0.498699
vt 0.677371 0.899478
vt 0.519971 0.767619
vt 0.043574 0.227261
vt 0.535060 0.301751
vt 0.518689 0.306592
vt 0.504250 0.290814
vt 0.831131 0.734671
vt 0.622477 0.578466
vt 0.197293 0.263313
vt 0.228392 0.279322
vt 0.166828 0.287236
vt 0.193897 0.145738
vt 0.216093 0.145459
vt 0.094665 0.648555
vt 0.080757 0.649941
vt 0.286850 0.415559
vt 0.540725 0.349989
vt 0.560934 0.483194
vt 0.359695 0.537530
vt 0.176799 0.145807
vt 0.733368 0.493137
vt 0.896553 0.609260
vt 0.058842 0.649474
vt 0.511088 0.330652
vt 0.372555 0.324560
vt 0.368318 0.348114
vt 0.270682 0.372002
vt 0.387062 0.366278
vn -0.069900 -0.023100 0.997300
vn -0.051300 -0.424200 0.904100
vn 0.017000 0.786600 0.617200
vn -0.312800 0.670600 0.672600
vn -0.349400 0.687100 0.637000
vn -0.386800 0.010000 0.922100
vn -0.318600 -0.006800 0.947900
vn -0.324000 -0.759500 0.564100
vn -0.289000 -0.752100 0.592200
vn -0.330300 -0.940300 0.082200
vn -0.290200 -0.951900 0.098400
vn -0.329800 0.939700 0.090300
vn -0.372500 0.924800 0.077600
vn 0.864800 0.498200 0.062600
vn -0.865200 0.095100 0.492400
vn 0.031800 0.997300 0.066700
vn 0.950100 -0.306900 0.056400
vn 0.039700 -0.999200 -0.003400
vn -0.862800 -0.085500 0.498300
vn 0.503200 -0.801400 -0.323500
vn 0.013300 -0.020700 0.999700
vn -0.537100 0.591900 0.601000
vn -0.047900 0.330800 -0.942500
vn -0.054700 -0.190300 -0.980200
vn 0.007300 0.797900 -0.602800
vn -0.362900 0.655900 -0.661800
vn -0.371300 -0.073900 -0.925600
vn -0.391200 -0.081700 -0.916700
vn -0.384300 0.698100 -0.604100
vn -0.324400 -0.725200 -0.607300
vn -0.354000 -0.760100 -0.545000
vn 0.983000 -0.171300 -0.066500
vn -0.871200 0.059000 -0.487300
vn 0.039700 0.997700 -0.054600
vn 0.952200 -0.300700 -0.054400
vn 0.014800 -0.999200 -0.035900
vn -0.865800 -0.129400 -0.483400
vn 0.504300 -0.805200 0.312100
vn 0.017200 0.005500 -0.999800
vn -0.527400 0.587200 -0.614000
vn -0.997300 0.055700 -0.047900
vn -0.025900 -0.873200 0.486600
vn 0.968300 0.066200 -0.241000
vn 0.999700 0.024200 0.003400
vn 0.981600 -0.135200 -0.134800
vn 0.956900 0.203500 -0.207000
vn 0.968600 0.247100 0.028900
vn 0.975300 -0.220900 0.001600
vn 0.963600 0.232000 0.133300
vn -0.953900 0.038800 0.297700
vn -0.006200 0.998100 0.061300
vn 0.976100 -0.165900 0.140200
vn -0.013300 -0.998600 0.051000
vn -0.954500 -0.101400 0.280500
vn 0.506400 0.268800 0.819300
vn -0.359400 0.102100 0.927600
vn 0.011300 0.918100 0.396100
vn 0.544000 -0.188900 0.817600
vn 0.014400 -0.936800 0.349500
vn -0.339100 -0.100200 0.935400
vn -0.155000 0.827800 0.539200
vn -0.017200 -0.903200 -0.428900
vn 0.969300 0.094100 0.226900
vn 0.983000 -0.129700 0.130200
vn 0.946700 0.230200 0.225300
vn 0.985600 0.127100 -0.111300
vn -0.939500 -0.182700 -0.289900
vn -0.014100 0.992000 -0.125400
vn 0.985500 -0.101700 -0.135700
vn 0.010300 -0.996400 -0.084400
vn -0.945900 -0.091200 -0.311300
vn 0.781000 -0.065200 -0.621100
vn -0.238100 -0.142900 -0.960700
vn -0.009500 0.968300 -0.249500
vn 0.507000 -0.284700 -0.813600
vn 0.015800 -0.966500 -0.256100
vn -0.263300 -0.062700 -0.962700
vn -0.140700 0.832000 -0.536600
vn -0.002500 0.862400 0.506200
vn -0.036000 0.861000 0.507300
vn 0.010800 0.912500 -0.409000
vn -0.034100 0.904600 -0.424900
usemtl bright
s 1
f 25/1/1 28/2/1 27/3/1 26/4/1
f 26/4/2 27/3/2 30/5/2 29/6/2
f 35/7/3 36/8/3 38/9/3 37/10/3
f 6/11/4 68/12/5 69/13/6 7/14/7
f 7/14/7 69/13/6 70/15/8 8/16/9
f 8/16/9 70/15/8 71/17/10 9/18/11
f 10/19/12 67/20/13 68/12/5 6/11/4
f 19/21/14 25/22/14 26/23/14 20/24/14
f 21/25/15 27/26/15 28/27/15 22/28/15
f 22/29/16 28/30/16 25/31/16 19/32/16
f 20/24/17 26/23/17 29/33/17 23/34/17
f 23/35/18 29/36/18 30/37/18 24/38/18
f 24/39/19 30/40/19 27/26/19 21/25/19
f 31/41/20 35/42/20 37/43/20 33/44/20
f 33/45/21 37/10/21 38/9/21 34/46/21
f 34/46/22 38/9/22 36/8/22 32/47/22
f 57/48/23 58/49/23 59/50/23 60/51/23
f 58/49/24 61/52/24 62/53/24 59/50/24
f 35/54/25 65/55/25 66/56/25 36/57/25
f 42/58/26 43/59/27 73/60/28 74/61/29
f 43/59/27 44/62/30 72/63/31 73/60/28
f 44/62/30 9/18/11 71/17/10 72/63/31
f 10/19/12 42/58/26 74/61/29 67/20/13
f 51/64/32 52/65/32 58/66/32 57/67/32
f 53/68/33 54/69/33 60/70/33 59/71/33
f 54/72/34 51/73/34 57/74/34 60/75/34
f 52/65/35 55/76/35 61/77/35 58/66/35
f 55/78/36 56/79/36 62/80/36 61/81/36
f 56/82/37 53/68/37 59/71/37 62/83/37
f 31/41/38 63/84/38 65/85/38 35/42/38
f 63/86/39 64/87/39 66/56/39 65/55/39
f 64/87/40 32/88/40 36/57/40 66/56/40
f 68/12/5 67/20/13 12/89/41
f 69/13/6 68/12/5 12/89/41
f 70/15/8 69/13/6 12/89/41
f 71/17/10 70/15/8 12/89/41
f 72/63/31 71/17/10 12/89/41
f 73/60/28 72/63/31 12/89/41
f 74/61/29 73/60/28 12/89/41
f 67/20/13 74/61/29 12/89/41
usemtl Grey
f 3/90/42 8/91/42 9/92/42 4/93/42
f 2/94/43 11/95/44 1/96/45
f 3/97/46 11/95/44 2/94/43
f 4/98/47 11/95/44 3/97/46
f 1/96/45 11/95/44 5/99/48
f 1/96/49 13/100/49 14/101/49 2/94/49
f 7/14/50 15/102/50 16/103/50 6/11/50
f 6/104/51 16/105/51 13/106/51 1/107/51
f 2/94/52 14/101/52 17/108/52 3/97/52
f 3/90/53 17/109/53 18/110/53 8/91/53
f 8/16/54 18/111/54 15/102/54 7/14/54
f 13/100/55 19/21/55 20/24/55 14/101/55
f 15/102/56 21/25/56 22/28/56 16/103/56
f 16/105/57 22/29/57 19/32/57 13/106/57
f 14/101/58 20/24/58 23/34/58 17/108/58
f 17/109/59 23/35/59 24/38/59 18/110/59
f 18/111/60 24/39/60 21/25/60 15/102/60
f 5/112/61 31/113/61 33/114/61 1/107/61
f 41/115/62 4/93/62 9/92/62 44/116/62
f 40/117/63 39/118/64 11/95/44
f 41/119/65 40/117/63 11/95/44
f 4/98/47 41/119/65 11/95/44
f 39/118/64 5/99/48 11/95/44
f 39/118/66 40/117/66 46/120/66 45/121/66
f 43/59/67 42/58/67 48/122/67 47/123/67
f 42/124/68 39/125/68 45/126/68 48/127/68
f 40/117/69 41/119/69 49/128/69 46/120/69
f 41/115/70 44/116/70 50/129/70 49/130/70
f 44/62/71 43/59/71 47/123/71 50/131/71
f 45/121/72 46/120/72 52/65/72 51/64/72
f 47/123/73 48/122/73 54/69/73 53/68/73
f 48/127/74 45/126/74 51/73/74 54/72/74
f 46/120/75 49/128/75 55/76/75 52/65/75
f 49/130/76 50/129/76 56/79/76 55/78/76
f 50/131/77 47/123/77 53/68/77 56/82/77
f 5/112/78 39/125/78 63/132/78 31/113/78
usemtl Black
f 1/107/79 33/114/79 34/133/79 6/104/79
f 6/104/80 34/133/80 32/134/80 10/135/80
f 39/125/81 42/124/81 64/136/81 63/132/81
f 42/124/82 10/135/82 32/134/82 64/136/82
